<svg width="204" height="36" viewBox="0 0 204 36" fill="none" xmlns="http://www.w3.org/2000/svg">
<path d="M74.3857 20.2754H82.2359V21.969H79.2098V31.0553H77.4359V21.969H74.3857V20.2754Z" fill="white"/>
<path d="M94.0671 27.909H87.9347C88.0551 28.4869 88.336 28.9284 88.7775 29.2495C89.2109 29.5705 89.7567 29.723 90.3989 29.723C91.2738 29.723 91.932 29.402 92.3815 28.7678L93.7541 29.5705C93.0076 30.6862 91.8838 31.2481 90.3828 31.2481C89.1387 31.2481 88.1273 30.8709 87.3487 30.1083C86.5782 29.3377 86.1929 28.3665 86.1929 27.1946C86.1929 26.0548 86.5701 25.0916 87.3327 24.313C88.0792 23.5344 89.0584 23.1411 90.2624 23.1411C91.3782 23.1411 92.3093 23.5344 93.0317 24.3291C93.7621 25.1237 94.1233 26.0789 94.1233 27.2107C94.1313 27.4194 94.1073 27.6521 94.0671 27.909ZM87.9266 26.5525H92.4537C92.3414 25.9505 92.0845 25.4769 91.6912 25.1478C91.2979 24.8187 90.8163 24.6582 90.2544 24.6582C89.6363 24.6582 89.1226 24.8267 88.7133 25.1638C88.2959 25.509 88.039 25.9665 87.9266 26.5525Z" fill="white"/>
<path d="M102.415 31.2481C101.251 31.2481 100.288 30.8548 99.5011 30.0762C98.7305 29.2896 98.3452 28.3264 98.3452 27.1946C98.3452 26.0468 98.7305 25.0836 99.5011 24.313C100.28 23.5344 101.251 23.1411 102.415 23.1411C103.161 23.1411 103.844 23.3177 104.462 23.6789C105.08 24.0401 105.537 24.5217 105.85 25.1237L104.421 25.9585C104.245 25.5893 103.98 25.3003 103.627 25.0916C103.274 24.8829 102.864 24.7786 102.399 24.7786C101.724 24.7786 101.155 25.0113 100.689 25.4689C100.24 25.9424 100.015 26.5123 100.015 27.1946C100.015 27.8769 100.24 28.4468 100.689 28.9204C101.155 29.3859 101.724 29.6107 102.399 29.6107C102.848 29.6107 103.258 29.5063 103.627 29.2976C103.988 29.0889 104.269 28.8 104.454 28.4307L105.882 29.2495C105.553 29.8675 105.08 30.3491 104.462 30.7103C103.836 31.0715 103.153 31.2481 102.415 31.2481Z" fill="white"/>
<path d="M114.367 23.1494C115.258 23.1494 115.972 23.4303 116.518 24.0002C117.056 24.5701 117.328 25.3407 117.328 26.32V31.0477H115.667V26.4885C115.667 25.9106 115.514 25.4691 115.201 25.1641C114.896 24.8591 114.471 24.6986 113.941 24.6986C113.339 24.6986 112.858 24.8832 112.512 25.2604C112.159 25.6377 111.991 26.1835 111.991 26.9139V31.0397H110.329V20.2598H111.991V24.3213C112.488 23.5507 113.283 23.1494 114.367 23.1494Z" fill="white"/>
<path d="M126.343 23.1489C127.234 23.1489 127.949 23.4299 128.495 23.9998C129.04 24.5697 129.305 25.3402 129.305 26.3195V31.0472H127.636V26.488C127.636 25.9101 127.483 25.4686 127.17 25.1636C126.865 24.8586 126.44 24.6981 125.91 24.6981C125.308 24.6981 124.826 24.8827 124.481 25.26C124.128 25.6372 123.959 26.183 123.959 26.9135V31.0392H122.298V23.3416H123.959V24.3289C124.473 23.5503 125.268 23.1489 126.343 23.1489Z" fill="white"/>
<path d="M137.909 31.2481C136.77 31.2481 135.806 30.8548 135.028 30.0762C134.233 29.2896 133.84 28.3264 133.84 27.1946C133.84 26.0628 134.233 25.1077 135.028 24.313C135.806 23.5344 136.77 23.1411 137.909 23.1411C139.049 23.1411 140.012 23.5344 140.791 24.313C141.578 25.1077 141.979 26.0628 141.979 27.1946C141.979 28.3264 141.586 29.2816 140.791 30.0762C140.012 30.8628 139.049 31.2481 137.909 31.2481ZM135.509 27.2026C135.509 27.901 135.742 28.4789 136.2 28.9444C136.665 29.41 137.235 29.6347 137.909 29.6347C138.584 29.6347 139.154 29.402 139.619 28.9444C140.085 28.4789 140.309 27.901 140.309 27.2026C140.309 26.5043 140.077 25.9264 139.619 25.4608C139.154 24.9953 138.584 24.7705 137.909 24.7705C137.235 24.7705 136.665 25.0033 136.2 25.4608C135.734 25.9184 135.509 26.5043 135.509 27.2026Z" fill="white"/>
<path d="M148.336 31.0553H146.675V19.8179H148.336V31.0553Z" fill="white"/>
<path d="M157.077 31.2481C155.938 31.2481 154.974 30.8548 154.196 30.0762C153.401 29.2896 153.008 28.3264 153.008 27.1946C153.008 26.0628 153.401 25.1077 154.196 24.313C154.974 23.5344 155.938 23.1411 157.077 23.1411C158.217 23.1411 159.18 23.5344 159.959 24.313C160.746 25.1077 161.147 26.0628 161.147 27.1946C161.147 28.3264 160.754 29.2816 159.959 30.0762C159.18 30.8628 158.217 31.2481 157.077 31.2481ZM154.677 27.2026C154.677 27.901 154.91 28.4789 155.368 28.9444C155.833 29.41 156.403 29.6347 157.077 29.6347C157.752 29.6347 158.322 29.402 158.787 28.9444C159.253 28.4789 159.477 27.901 159.477 27.2026C159.477 26.5043 159.245 25.9264 158.787 25.4608C158.322 24.9953 157.752 24.7705 157.077 24.7705C156.403 24.7705 155.833 25.0033 155.368 25.4608C154.902 25.9184 154.677 26.5043 154.677 27.2026Z" fill="white"/>
<path d="M171.975 24.4894V23.3496H173.604V30.6941C173.604 31.866 173.219 32.7649 172.448 33.391C171.686 34.0171 170.755 34.3302 169.647 34.3302C167.873 34.3302 166.653 33.7121 165.995 32.468L167.423 31.6332C167.825 32.4278 168.571 32.8211 169.671 32.8211C170.385 32.8211 170.955 32.6365 171.357 32.2593C171.766 31.882 171.967 31.3603 171.967 30.6941V29.7549C171.34 30.6459 170.449 31.0954 169.286 31.0954C168.21 31.0954 167.287 30.7101 166.532 29.9395C165.786 29.161 165.409 28.2218 165.409 27.1222C165.409 26.0145 165.786 25.0753 166.532 24.3208C167.279 23.5422 168.202 23.1489 169.286 23.1489C170.449 23.1489 171.34 23.5984 171.975 24.4894ZM167.769 28.8479C168.242 29.3135 168.828 29.5382 169.526 29.5382C170.225 29.5382 170.803 29.3054 171.268 28.8479C171.742 28.3824 171.975 27.8125 171.975 27.1222C171.975 26.4319 171.742 25.862 171.268 25.3964C170.803 24.9309 170.225 24.7061 169.526 24.7061C168.828 24.7061 168.242 24.9389 167.769 25.3964C167.303 25.862 167.078 26.4319 167.078 27.1222C167.07 27.8125 167.303 28.3904 167.769 28.8479Z" fill="white"/>
<path d="M180.298 21.8892C180.09 22.0979 179.849 22.1943 179.56 22.1943C179.271 22.1943 179.022 22.0899 178.806 21.8892C178.597 21.6725 178.5 21.4237 178.5 21.1347C178.5 20.8458 178.605 20.605 178.806 20.3963C179.014 20.1796 179.263 20.0752 179.56 20.0752C179.857 20.0752 180.106 20.1796 180.315 20.3963C180.523 20.605 180.62 20.8458 180.62 21.1347C180.628 21.4237 180.515 21.6725 180.298 21.8892ZM180.395 31.0558H178.733V23.3581H180.395V31.0558Z" fill="white"/>
<path d="M192.941 27.909H186.809C186.929 28.4869 187.21 28.9284 187.652 29.2495C188.085 29.5705 188.631 29.723 189.273 29.723C190.148 29.723 190.806 29.402 191.256 28.7678L192.628 29.5705C191.882 30.6862 190.758 31.2481 189.257 31.2481C188.013 31.2481 187.001 30.8709 186.223 30.1083C185.452 29.3377 185.067 28.3665 185.067 27.1946C185.067 26.0548 185.444 25.0916 186.207 24.313C186.953 23.5344 187.932 23.1411 189.136 23.1411C190.252 23.1411 191.183 23.5344 191.906 24.3291C192.636 25.1237 192.997 26.0789 192.997 27.2107C193.005 27.4194 192.981 27.6521 192.941 27.909ZM186.801 26.5525H191.328C191.215 25.9505 190.959 25.4769 190.565 25.1478C190.172 24.8187 189.69 24.6582 189.128 24.6582C188.51 24.6582 187.997 24.8267 187.587 25.1638C187.178 25.509 186.913 25.9665 186.801 26.5525Z" fill="white"/>
<path d="M199.146 25.477C199.146 25.7097 199.267 25.9024 199.516 26.0549C199.764 26.2074 200.118 26.3438 200.591 26.4803C200.952 26.5606 201.265 26.6489 201.53 26.7452C201.795 26.8335 202.076 26.9699 202.381 27.1545C202.678 27.3311 202.911 27.5719 203.063 27.8609C203.224 28.1499 203.296 28.495 203.288 28.8883C203.288 29.6268 202.999 30.2047 202.429 30.6301C201.851 31.0475 201.137 31.2642 200.286 31.2642C199.524 31.2642 198.873 31.1037 198.328 30.7907C197.782 30.4696 197.388 30.0281 197.14 29.4662L198.568 28.6315C198.825 29.3699 199.395 29.7392 200.278 29.7392C201.153 29.7392 201.586 29.4502 201.586 28.8803C201.586 28.4629 201.097 28.1338 200.126 27.893C199.756 27.7967 199.443 27.7084 199.194 27.6121C198.946 27.5238 198.665 27.3873 198.36 27.2107C198.055 27.0341 197.822 26.8014 197.669 26.5204C197.509 26.2315 197.437 25.9024 197.445 25.5171C197.445 24.8107 197.71 24.2408 198.247 23.8074C198.793 23.374 199.467 23.1572 200.262 23.1572C200.896 23.1572 201.466 23.3017 201.964 23.5826C202.461 23.8636 202.847 24.2569 203.112 24.7626L201.707 25.5492C201.45 24.9633 200.968 24.6743 200.262 24.6743C199.933 24.6743 199.66 24.7465 199.451 24.891C199.259 25.0194 199.146 25.2201 199.146 25.477Z" fill="white"/>
<path d="M82.5576 3.14619L77.9984 10.3221H82.6378V12.9388H74.4746V10.8278L79.0338 3.65187H74.5629V1.03516H82.5576V3.14619Z" fill="white"/>
<path d="M90.4802 1.04346H93.5785L89.5812 8.37187V12.9471H86.8601V8.37187L82.8628 1.04346H85.9611L88.2247 5.63475L90.4802 1.04346Z" fill="white"/>
<path d="M101.019 7.50498V1.04346H103.74V12.9471H101.702L97.1102 6.48558V12.9471H94.3892V1.04346H96.428L101.019 7.50498Z" fill="white"/>
<path d="M108.3 8.21936V10.3304H113.06V12.9471H105.579V1.04346H112.979V3.66017H108.3V5.63475H112.554V8.21936H108.3Z" fill="white"/>
<path d="M113.541 1.04346H122.386V3.66017H119.328V12.9471H116.607V3.66017H113.549V1.04346H113.541Z" fill="white"/>
<path d="M133.431 11.398C132.227 12.586 130.766 13.18 129.04 13.18C127.315 13.18 125.854 12.586 124.65 11.398C123.446 10.2101 122.844 8.74117 122.844 6.99134C122.844 5.24152 123.446 3.78065 124.65 2.58466C125.854 1.39671 127.315 0.802734 129.04 0.802734C130.766 0.802734 132.227 1.39671 133.431 2.58466C134.635 3.77262 135.237 5.24152 135.237 6.99134C135.237 8.74117 134.635 10.2101 133.431 11.398ZM125.581 6.99134C125.581 8.03482 125.91 8.88565 126.568 9.54385C127.226 10.202 128.053 10.5311 129.048 10.5311C130.036 10.5311 130.854 10.202 131.513 9.54385C132.179 8.87763 132.516 8.02679 132.516 6.99134C132.516 5.96392 132.179 5.11309 131.513 4.43884C130.854 3.78065 130.036 3.45155 129.048 3.45155C128.053 3.45155 127.226 3.78065 126.568 4.43884C125.91 5.09704 125.581 5.94787 125.581 6.99134Z" fill="white"/>
<path d="M146.426 6.3171H152.398V7.33649C152.398 9.10238 151.844 10.5311 150.729 11.6067C149.629 12.6582 148.232 13.188 146.531 13.188C144.684 13.188 143.143 12.594 141.923 11.406C140.711 10.2181 140.101 8.7492 140.101 7.01542C140.101 5.28165 140.703 3.81276 141.907 2.60875C143.111 1.40474 144.588 0.802734 146.346 0.802734C147.446 0.802734 148.457 1.05156 149.38 1.54119C150.303 2.03082 151.025 2.69704 151.547 3.5238L149.227 4.8482C148.955 4.43081 148.561 4.09369 148.048 3.83684C147.534 3.57998 146.956 3.45155 146.322 3.45155C145.31 3.45155 144.476 3.78868 143.801 4.45489C143.143 5.11309 142.814 5.97195 142.814 7.02345C142.814 8.04285 143.151 8.88565 143.834 9.5599C144.516 10.2101 145.423 10.5311 146.555 10.5311C148.12 10.5311 149.131 9.9211 149.597 8.69301H146.418V6.3171H146.426Z" fill="white"/>
<path d="M156.444 1.04395V10.3309H160.698V12.9476H153.723V1.04395H156.444Z" fill="white"/>
<path d="M171.743 11.398C170.539 12.586 169.078 13.18 167.352 13.18C165.627 13.18 164.166 12.586 162.962 11.398C161.758 10.2101 161.156 8.74117 161.156 6.99134C161.156 5.24152 161.758 3.78065 162.962 2.58466C164.166 1.39671 165.627 0.802734 167.352 0.802734C169.078 0.802734 170.539 1.39671 171.743 2.58466C172.947 3.77262 173.549 5.24152 173.549 6.99134C173.549 8.74117 172.947 10.2101 171.743 11.398ZM163.893 6.99134C163.893 8.03482 164.222 8.88565 164.88 9.54385C165.538 10.202 166.365 10.5311 167.36 10.5311C168.348 10.5311 169.166 10.202 169.825 9.54385C170.491 8.87763 170.828 8.02679 170.828 6.99134C170.828 5.96392 170.491 5.11309 169.825 4.43884C169.166 3.78065 168.348 3.45155 167.36 3.45155C166.365 3.45155 165.538 3.78065 164.88 4.43884C164.222 5.09704 163.893 5.94787 163.893 6.99134Z" fill="white"/>
<path d="M182.258 6.77433C183.229 7.40844 183.719 8.30743 183.719 9.46328C183.719 10.4987 183.349 11.3335 182.611 11.9837C181.872 12.6338 180.957 12.9549 179.874 12.9549H174.873V1.05127H179.529C180.58 1.05127 181.471 1.37234 182.201 2.00645C182.924 2.63254 183.293 3.44323 183.293 4.4546C183.293 5.40978 182.948 6.18035 182.258 6.77433ZM179.537 3.59574H177.594V5.70678H179.537C179.842 5.70678 180.09 5.61045 180.283 5.40979C180.476 5.20912 180.572 4.96029 180.572 4.65527C180.572 4.35025 180.476 4.0934 180.283 3.90076C180.09 3.69207 179.842 3.59574 179.537 3.59574ZM177.594 10.3944H179.874C180.211 10.3944 180.484 10.29 180.692 10.0813C180.893 9.87265 180.997 9.59974 180.997 9.25459C180.997 8.91747 180.893 8.63653 180.692 8.42784C180.492 8.21914 180.219 8.1148 179.874 8.1148H177.594V10.3944Z" fill="white"/>
<path d="M195.414 12.9476H192.436L191.842 11.0774H187.419L186.825 12.9476H183.847L187.893 1.04395H191.36L195.414 12.9476ZM189.634 4.15029L188.238 8.51684H191.023L189.634 4.15029Z" fill="white"/>
<path d="M198.953 1.04346V10.3304H203.208V12.9471H196.232V1.04346H198.953Z" fill="white"/>
<mask id="mask0_660_560" style="mask-type:luminance" maskUnits="userSpaceOnUse" x="0" y="12" width="19" height="24">
<path d="M0.907715 24.1484C0.907715 32.5919 8.70504 36 11.9556 36H16.4709L18.8743 33.2656H11.9556C10.1944 33.2656 3.63816 30.9843 3.63816 24.1484C3.63816 18.4748 7.72003 16.2999 10.2535 15.634C10.2338 14.7633 10.3165 13.7901 10.5805 12.7617C6.85323 13.3606 0.907715 16.4929 0.907715 24.1484Z" fill="white"/>
</mask>
<g mask="url(#mask0_660_560)">
<path d="M18.8743 12.7578H0.907715V36H18.8743V12.7578Z" fill="url(#paint0_linear_660_560)"/>
</g>
<mask id="mask1_660_560" style="mask-type:luminance" maskUnits="userSpaceOnUse" x="10" y="4" width="19" height="18">
<path d="M11.5535 19.7239C11.5535 19.129 12.0381 18.6444 12.633 18.6444C13.228 18.6444 13.7126 19.129 13.7126 19.7239C13.7126 20.3189 13.228 20.8035 12.633 20.8035C12.0381 20.7996 11.5535 20.3189 11.5535 19.7239ZM20.1979 4.67305C17.3808 4.84642 14.8552 6.06388 13.0822 8.10088C11.7111 9.68082 10.9585 11.2765 10.5803 12.758C10.3163 13.7863 10.2336 14.7595 10.2533 15.6303C10.2887 17.0684 10.6 18.2267 10.8285 18.8926C10.7103 19.1448 10.6473 19.4245 10.6473 19.72C10.6473 20.8153 11.5338 21.7018 12.6291 21.7018C13.7244 21.7018 14.6109 20.8153 14.6109 19.72C14.6109 18.8887 14.0987 18.1795 13.3738 17.884C13.2122 17.3875 12.9916 16.5286 12.9876 15.4569C12.9837 14.6531 13.098 13.7351 13.4447 12.7619C13.7717 11.836 14.3076 10.8628 15.1468 9.89359C16.4312 8.41214 18.2831 7.52563 20.3634 7.39955C22.5856 7.26559 24.7723 8.01025 26.368 9.44836C26.9275 9.95269 27.7943 9.90935 28.2986 9.34986C28.8029 8.79038 28.7596 7.92357 28.2001 7.41925C26.2262 5.6423 23.5903 4.64941 20.8795 4.64941C20.651 4.64941 20.4264 4.65729 20.1979 4.67305Z" fill="white"/>
</mask>
<g mask="url(#mask1_660_560)">
<path d="M28.8072 4.64941H10.2378V21.7018H28.8072V4.64941Z" fill="url(#paint1_linear_660_560)"/>
</g>
<mask id="mask2_660_560" style="mask-type:luminance" maskUnits="userSpaceOnUse" x="23" y="0" width="35" height="17">
<path d="M24.6698 14.6293C24.6698 14.0344 25.1545 13.5497 25.7494 13.5497C26.3444 13.5497 26.829 14.0344 26.829 14.6293C26.829 15.2243 26.3444 15.7089 25.7494 15.7089C25.1505 15.7049 24.6698 15.2243 24.6698 14.6293ZM27.5027 6.78472C25.7297 9.32604 24.9614 11.8555 24.6895 12.9548C24.1379 13.3055 23.7676 13.924 23.7676 14.6254C23.7676 15.7207 24.6541 16.6072 25.7494 16.6072C26.8447 16.6072 27.7313 15.7207 27.7313 14.6254C27.7313 14.2038 27.5973 13.8098 27.3688 13.4867C27.9283 11.2566 30.7454 2.73438 41.0092 2.73438C49.1966 2.73438 53.1208 9.88552 54.7362 14.1486C55.0042 14.8539 55.7922 15.2124 56.4974 14.9445C57.2027 14.6766 57.5612 13.8886 57.2933 13.1833C55.4297 8.25829 50.8396 0 41.0092 0C33.7595 0.00394002 29.6619 3.6918 27.5027 6.78472Z" fill="white"/>
</mask>
<g mask="url(#mask2_660_560)">
<path d="M57.5578 0.00390625H23.7642V16.6111H57.5578V0.00390625Z" fill="url(#paint2_linear_660_560)"/>
</g>
<mask id="mask3_660_560" style="mask-type:luminance" maskUnits="userSpaceOnUse" x="13" y="18" width="25" height="18">
<path d="M35.8045 18.6641H33.5271H13.9058V21.2684H31.2025L20.7141 33.0136L20.7181 33.0254L17.9719 36.0002H18.6535H35.5562L36.3876 35.1058L36.6161 34.8418L37.9045 33.3958H23.9962L34.0236 22.3086L36.4231 19.653L37.3174 18.6641H35.8045Z" fill="white"/>
</mask>
<g mask="url(#mask3_660_560)">
<path d="M5.2373 27.3324L25.9028 6.66699L46.5722 27.3324L25.9028 48.0018L5.2373 27.3324Z" fill="url(#paint3_linear_660_560)"/>
</g>
<mask id="mask4_660_560" style="mask-type:luminance" maskUnits="userSpaceOnUse" x="37" y="12" width="30" height="24">
<path d="M39.1184 23.4077C38.9214 23.3801 38.7402 23.3013 38.5905 23.1831C38.5708 23.1673 38.5511 23.1476 38.5314 23.1319C38.5274 23.1279 38.5195 23.124 38.5156 23.12C38.4998 23.1043 38.4841 23.0885 38.4683 23.0688C38.4604 23.0609 38.4526 23.0531 38.4486 23.0452C38.4368 23.0294 38.421 23.0137 38.4092 22.9979C38.4013 22.9861 38.3935 22.9782 38.3856 22.9664C38.3738 22.9506 38.3619 22.9349 38.3541 22.9191C38.3462 22.9073 38.3383 22.8955 38.3304 22.8836C38.3225 22.8679 38.3107 22.8521 38.3028 22.8364C38.295 22.8206 38.2871 22.8088 38.2831 22.793C38.2753 22.7773 38.2674 22.7615 38.2634 22.7457C38.2555 22.73 38.2516 22.7142 38.2437 22.6945C38.2398 22.6788 38.2319 22.663 38.228 22.6472C38.224 22.6275 38.2201 22.6118 38.2122 22.5921C38.2083 22.5763 38.2043 22.5645 38.2004 22.5487C38.1965 22.529 38.1925 22.5054 38.1925 22.4818C38.1925 22.4699 38.1886 22.4581 38.1886 22.4424C38.1846 22.4108 38.1846 22.3754 38.1846 22.3399V22.336V22.332C38.1846 22.2966 38.1846 22.2651 38.1886 22.2296C38.1886 22.2178 38.1925 22.206 38.1925 22.1902C38.1964 22.1666 38.1965 22.1469 38.2004 22.1232C38.2043 22.1075 38.2083 22.0956 38.2122 22.0799C38.2162 22.0602 38.2201 22.0444 38.228 22.0247C38.2319 22.009 38.2398 21.9932 38.2437 21.9774C38.2477 21.9617 38.2555 21.9459 38.2634 21.9262C38.2713 21.9105 38.2753 21.8947 38.2831 21.8789C38.291 21.8632 38.295 21.8514 38.3028 21.8356C38.3107 21.8198 38.3186 21.8041 38.3304 21.7883C38.3383 21.7765 38.3462 21.7647 38.3541 21.7529C38.3659 21.7371 38.3738 21.7213 38.3856 21.7056C38.3935 21.6938 38.4013 21.6859 38.4092 21.6741C38.421 21.6583 38.4368 21.6425 38.4486 21.6268C38.4565 21.6189 38.4604 21.611 38.4683 21.6031C38.4841 21.5874 38.4998 21.5677 38.5156 21.5519C38.5195 21.548 38.5274 21.544 38.5314 21.5362C38.5511 21.5165 38.5708 21.5007 38.5905 21.4849C38.7402 21.3667 38.9214 21.2879 39.1184 21.2604C39.1657 21.2525 39.213 21.2485 39.2603 21.2485C39.8552 21.2485 40.3398 21.7332 40.3398 22.3281C40.3398 22.923 39.8591 23.4077 39.2603 23.4077C39.213 23.4155 39.1657 23.4116 39.1184 23.4077ZM63.2708 22.0956C63.2708 21.5007 63.7555 21.0161 64.3504 21.0161C64.9453 21.0161 65.43 21.4968 65.43 22.0956C65.43 22.6906 64.9453 23.1752 64.3504 23.1752C63.7555 23.1752 63.2708 22.6906 63.2708 22.0956ZM47.5619 15.7837C47.5619 15.1888 48.0465 14.7042 48.6415 14.7042C49.2364 14.7042 49.7211 15.1888 49.7211 15.7837C49.7211 16.3787 49.2364 16.8633 48.6415 16.8633C48.0465 16.8593 47.5619 16.3787 47.5619 15.7837ZM49.461 13.9792C49.2088 13.8649 48.933 13.7979 48.6375 13.7979C47.5422 13.7979 46.6557 14.6845 46.6557 15.7798C46.6557 16.8751 47.5422 17.7616 48.6375 17.7616C49.4689 17.7616 50.182 17.2455 50.4736 16.5205C51.364 16.1383 53.3616 15.3818 55.3001 15.3818C56.6319 15.3818 61.2732 16.4259 62.9241 20.7403C62.8926 20.7757 62.8571 20.8073 62.8295 20.8467H62.1558H54.1575H52.6485H50.3672H40.5565C40.2059 20.5433 39.7528 20.3581 39.2524 20.3581C38.157 20.3581 37.2666 21.2485 37.2666 22.3439C37.2666 23.4392 38.157 24.3296 39.2524 24.3296C39.8749 24.3296 40.4265 24.0459 40.7929 23.5968H48.0308L37.5621 35.9133L37.566 35.9251L37.503 36H41.116L51.7975 23.5928H62.1637H63.0778C63.2117 23.7071 63.3575 23.8056 63.5191 23.8844C63.523 23.9711 63.523 24.0617 63.523 24.1484C63.523 30.9883 56.9668 33.2656 54.7131 33.2656H44.9733L42.5699 36H55.2056C58.4561 36 66.2534 32.5879 66.2534 24.1484C66.2534 23.7071 66.2337 23.2855 66.1943 22.8718C66.2968 22.6315 66.3598 22.3714 66.3598 22.0917C66.3598 21.7647 66.281 21.4613 66.1392 21.1894C66.0525 21.0161 65.9382 20.8585 65.8043 20.7206C64.1337 14.7554 58.2315 12.6475 55.3041 12.6475C52.9204 12.6475 50.5918 13.4985 49.461 13.9792Z" fill="white"/>
</mask>
<g mask="url(#mask4_660_560)">
<path d="M25.5996 24.3219L51.8166 -1.89502L78.0375 24.3219L51.8166 50.5428L25.5996 24.3219Z" fill="url(#paint4_linear_660_560)"/>
</g>
<defs>
<linearGradient id="paint0_linear_660_560" x1="0.917199" y1="24.3871" x2="18.8832" y2="24.3871" gradientUnits="userSpaceOnUse">
<stop stop-color="#EA2711"/>
<stop offset="1" stop-color="#EEA819"/>
</linearGradient>
<linearGradient id="paint1_linear_660_560" x1="10.2244" y1="13.1668" x2="28.6264" y2="13.1668" gradientUnits="userSpaceOnUse">
<stop stop-color="#EA2711"/>
<stop offset="1" stop-color="#EEA819"/>
</linearGradient>
<linearGradient id="paint2_linear_660_560" x1="23.7519" y1="8.29148" x2="57.3639" y2="8.29148" gradientUnits="userSpaceOnUse">
<stop stop-color="#EA2711"/>
<stop offset="1" stop-color="#EEA819"/>
</linearGradient>
<linearGradient id="paint3_linear_660_560" x1="17.5889" y1="35.675" x2="42.5608" y2="10.7031" gradientUnits="userSpaceOnUse">
<stop stop-color="#EC2711"/>
<stop offset="1" stop-color="#F0AA19"/>
</linearGradient>
<linearGradient id="paint4_linear_660_560" x1="17.5781" y1="58.5693" x2="61.581" y2="14.5663" gradientUnits="userSpaceOnUse">
<stop stop-color="#EC2711"/>
<stop offset="1" stop-color="#F0AA19"/>
</linearGradient>
</defs>
</svg>
