<svg width="18" height="17" viewBox="0 0 18 17" fill="none" xmlns="http://www.w3.org/2000/svg">
<path d="M13.2074 11.3431C12.6613 10.8039 11.9796 10.8039 11.437 11.3431C11.0231 11.7535 10.6092 12.1639 10.2022 12.5813C10.0909 12.6961 9.99703 12.7204 9.86138 12.6439C9.59356 12.4978 9.30836 12.3795 9.05097 12.2196C7.85101 11.4648 6.84583 10.4944 5.95542 9.40225C5.51369 8.85966 5.12066 8.27881 4.84589 7.62491C4.79024 7.49274 4.80067 7.40579 4.9085 7.29797C5.3224 6.89798 5.72586 6.48756 6.1328 6.07714C6.69974 5.50672 6.69974 4.83892 6.12933 4.26502C5.80586 3.93807 5.48239 3.61808 5.15892 3.29114C4.82502 2.95724 4.4946 2.61986 4.15722 2.28943C3.61115 1.75727 2.92943 1.75727 2.38684 2.29291C1.96946 2.70333 1.56947 3.12419 1.14514 3.52765C0.752106 3.89981 0.553851 4.35545 0.512113 4.88761C0.446028 5.75367 0.658195 6.57103 0.957316 7.36753C1.56947 9.01617 2.50162 10.4805 3.63201 11.823C5.15892 13.6386 6.98147 15.0751 9.11358 16.1116C10.0736 16.5777 11.0683 16.9359 12.15 16.9951C12.8943 17.0368 13.5413 16.849 14.0595 16.2681C14.4143 15.8716 14.8143 15.5099 15.1899 15.1308C15.7464 14.5673 15.7499 13.8856 15.1969 13.3291C14.536 12.6648 13.8717 12.0039 13.2074 11.3431Z" fill="white"/>
<path d="M12.545 8.57064L13.8285 8.3515C13.6268 7.17233 13.0702 6.10447 12.225 5.25575C11.331 4.36181 10.2005 3.79831 8.95529 3.62439L8.77441 4.91487C9.73792 5.05052 10.6145 5.48532 11.3067 6.17752C11.9606 6.83145 12.3884 7.65931 12.545 8.57064Z" fill="white"/>
<path d="M14.5515 2.99207C13.0697 1.51028 11.1948 0.574594 9.12521 0.285889L8.94434 1.57637C10.7322 1.82681 12.3531 2.63727 13.6332 3.91384C14.8471 5.12779 15.6437 6.66176 15.9324 8.34877L17.2159 8.12963C16.8785 6.17478 15.9567 4.40081 14.5515 2.99207Z" fill="white"/>
</svg>
