<svg width="17" height="16" viewBox="0 0 17 16" fill="none" xmlns="http://www.w3.org/2000/svg">
<path d="M8.498 5.3322C7.02901 5.3322 5.8302 6.53101 5.8302 8C5.8302 9.46899 7.02901 10.6678 8.498 10.6678C9.96699 10.6678 11.1658 9.46899 11.1658 8C11.1658 6.53101 9.96699 5.3322 8.498 5.3322ZM16.4994 8C16.4994 6.89525 16.5094 5.80051 16.4474 4.69777C16.3853 3.4169 16.0931 2.28014 15.1565 1.3435C14.2179 0.404868 13.0831 0.114672 11.8022 0.0526304C10.6975 -0.0094115 9.60274 0.000595291 8.5 0.000595291C7.39525 0.000595291 6.30051 -0.0094115 5.19777 0.0526304C3.9169 0.114672 2.78014 0.40687 1.8435 1.3435C0.904868 2.28214 0.614672 3.4169 0.55263 4.69777C0.490589 5.80252 0.500595 6.89725 0.500595 8C0.500595 9.10275 0.490589 10.1995 0.55263 11.3022C0.614672 12.5831 0.90687 13.7199 1.8435 14.6565C2.78214 15.5951 3.9169 15.8853 5.19777 15.9474C6.30252 16.0094 7.39725 15.9994 8.5 15.9994C9.60474 15.9994 10.6995 16.0094 11.8022 15.9474C13.0831 15.8853 14.2199 15.5931 15.1565 14.6565C16.0951 13.7179 16.3853 12.5831 16.4474 11.3022C16.5114 10.1995 16.4994 9.10475 16.4994 8ZM8.498 12.1048C6.22646 12.1048 4.39323 10.2715 4.39323 8C4.39323 5.72847 6.22646 3.89523 8.498 3.89523C10.7695 3.89523 12.6028 5.72847 12.6028 8C12.6028 10.2715 10.7695 12.1048 8.498 12.1048ZM12.7709 4.68576C12.2405 4.68576 11.8122 4.25747 11.8122 3.72711C11.8122 3.19675 12.2405 2.76847 12.7709 2.76847C13.3012 2.76847 13.7295 3.19675 13.7295 3.72711C13.7297 3.85305 13.705 3.97778 13.6569 4.09416C13.6088 4.21054 13.5382 4.31628 13.4491 4.40533C13.3601 4.49438 13.2543 4.56499 13.1379 4.61311C13.0216 4.66123 12.8968 4.68592 12.7709 4.68576Z" fill="white"/>
</svg>
