<svg width="15" height="14" viewBox="0 0 15 14" fill="none" xmlns="http://www.w3.org/2000/svg">
<path d="M14.9878 13.9985C14.9924 13.9031 14.9986 13.8294 14.9986 13.7552C14.9992 12.051 15.0028 10.3468 14.9955 8.64311C14.994 8.28319 14.9697 7.92125 14.9248 7.56436C14.6924 5.72438 13.5649 4.56789 11.75 4.36295C10.4475 4.21555 9.34018 4.59717 8.55308 5.68198C8.52106 5.7259 8.48232 5.76476 8.39917 5.86017C8.39917 5.3897 8.39917 4.98385 8.39917 4.56991C7.31355 4.56991 6.26201 4.56991 5.20479 4.56991C5.20479 7.72186 5.20479 10.8561 5.20479 13.9934C6.27441 13.9934 7.32697 13.9934 8.40278 13.9934C8.40278 13.8794 8.40278 13.7804 8.40278 13.6815C8.40278 12.4225 8.40124 11.163 8.40382 9.90409C8.40485 9.40888 8.4033 8.91317 8.42448 8.41898C8.44927 7.85008 8.74314 7.41343 9.209 7.09642C10.1355 6.46492 11.3338 6.86623 11.6411 7.92327C11.7423 8.27259 11.7769 8.65018 11.78 9.01565C11.7945 10.5856 11.7862 12.155 11.7862 13.7249C11.7862 13.8137 11.7862 13.9026 11.7862 14C12.8656 13.9985 13.911 13.9985 14.9878 13.9985ZM0.212065 4.55124C0.212065 7.72489 0.212065 10.8597 0.212065 13.9904C1.28529 13.9904 2.33786 13.9904 3.41419 13.9904C3.41419 13.8758 3.41419 13.7764 3.41419 13.6769C3.41419 10.8556 3.41419 8.03483 3.41419 5.21353C3.41419 5.07067 3.40231 4.9268 3.41677 4.78546C3.43691 4.59162 3.35479 4.54518 3.1668 4.5472C2.32495 4.55578 1.4831 4.55124 0.640736 4.55124C0.505421 4.55124 0.369589 4.55124 0.212065 4.55124ZM1.71035 0C1.12777 0.0212014 0.523497 0.242302 0.181593 0.901565C-0.257924 1.74962 0.130463 2.75921 1.02241 3.12367C2.03056 3.53559 3.21896 3.0838 3.53246 2.16961C3.91517 1.05351 3.09759 0.00555275 1.71035 0Z" fill="white"/>
</svg>
