<svg width="19" height="18" viewBox="0 0 19 18" fill="none" xmlns="http://www.w3.org/2000/svg">
<path d="M9.5 0C5.70049 0 2.60938 3.09111 2.60938 6.89062C2.60938 8.10682 2.9307 9.30252 3.53859 10.3484C3.6803 10.5923 3.83872 10.8299 4.00951 11.0547L9.20061 18H9.79936L14.9905 11.0547C15.1612 10.8299 15.3197 10.5923 15.4614 10.3485C16.0693 9.30252 16.3906 8.10682 16.3906 6.89062C16.3906 3.09111 13.2995 0 9.5 0ZM9.5 9.17578C8.23996 9.17578 7.21484 8.15066 7.21484 6.89062C7.21484 5.63059 8.23996 4.60547 9.5 4.60547C10.76 4.60547 11.7852 5.63059 11.7852 6.89062C11.7852 8.15066 10.76 9.17578 9.5 9.17578Z" fill="white"/>
</svg>
