<svg width="36" height="36" viewBox="0 0 18 13" fill="none" xmlns="http://www.w3.org/2000/svg">
<path d="M17.0126 2.02274C17.0126 2.00418 17.0254 1.98612 17.0245 1.96777L12.0684 6.74331L17.0186 11.3663C17.0215 11.3333 17.0126 11.3 17.0126 11.2662V2.02274Z" fill="white"/>
<path d="M11.3108 7.47937L9.28758 9.426C9.18519 9.5245 9.05296 9.57389 8.92066 9.57389C8.79111 9.57389 8.66156 9.52662 8.55989 9.43185L6.54213 7.55162L1.55957 12.3543C1.68072 12.3978 1.81077 12.4316 1.94695 12.4316H15.8944C16.0967 12.4316 16.2863 12.37 16.4512 12.2781L11.3108 7.47937Z" fill="white"/>
<path d="M8.91253 8.31468L16.4763 1.02852C16.3051 0.926701 16.1058 0.858398 15.8921 0.858398H1.9446C1.66638 0.858398 1.41145 0.966427 1.21289 1.13119L8.91253 8.31468Z" fill="white"/>
<path d="M0.783203 2.19934V11.2653C0.783203 11.3693 0.807123 11.4697 0.833089 11.5656L5.75384 6.82699L0.783203 2.19934Z" fill="white"/>
</svg>
